<?xml version="1.0" encoding="utf-8"?>
<!-- Generator: Adobe Illustrator 19.1.0, SVG Export Plug-In . SVG Version: 6.00 Build 0)  -->
<!DOCTYPE svg PUBLIC "-//W3C//DTD SVG 1.1//EN" "http://www.w3.org/Graphics/SVG/1.1/DTD/svg11.dtd">
<svg version="1.1" id="Ebene_1" xmlns="http://www.w3.org/2000/svg" xmlns:xlink="http://www.w3.org/1999/xlink" x="0px" y="0px"
	 viewBox="0 0 258 64" enable-background="new 0 0 258 64" xml:space="preserve">
<g>
	<g id="Claim">
		<path fill="#DC4405" d="M76.782547,56.7481461l2.8102646-7.6055336h1.5737457l-4.6006088,11.594738
			c-0.2741699,0.7073669-0.6251068,1.2707901-1.0500793,1.6902733c-0.4249649,0.4194832-1.0391083,0.6292229-1.8369522,0.6292229
			c-0.197403,0-0.3975449-0.0068512-0.6004333-0.0205612c-0.2028885-0.0123367-0.403038-0.0520935-0.5976944-0.1178932
			l0.137085-1.2570801c0.2741699,0.14394,0.6004333,0.2152252,0.9815369,0.2152252
			c0.4578629,0,0.8197708-0.14394,1.0802383-0.4318199c0.2632065-0.2878838,0.4935074-0.6950264,0.6881714-1.2186966
			l0.6689758-1.7684097l-3.7726059-9.3149986h1.6313248L76.782547,56.7481461z"/>
		<path fill="#DC4405" d="M91.8373413,53.7404785c0,0.6950264-0.1233826,1.3365898-0.3646545,1.9260597
			c-0.2440109,0.5894699-0.5812454,1.1007996-1.0116882,1.5339928c-0.433197,0.4318199-0.9459,0.7690544-1.5435944,1.0116959
			c-0.5949554,0.2426414-1.2557068,0.3632774-1.9740372,0.3632774c-0.7073669,0-1.3598938-0.120636-1.9548492-0.3632774
			c-0.5976944-0.2426414-1.1103973-0.5798759-1.5435867-1.0116959c-0.4331894-0.4331932-0.7704239-0.9445229-1.0116959-1.5339928
			c-0.2440109-0.5894699-0.3646469-1.2310333-0.3646469-1.9260597c0-0.6936569,0.120636-1.3352165,0.3646469-1.9260597
			c0.241272-0.5894699,0.5785065-1.0994301,1.0116959-1.5326195c0.4331894-0.4318237,0.9458923-0.7690544,1.5435867-1.0116959
			c0.5949554-0.2426453,1.2474823-0.3632774,1.9548492-0.3632774c0.7183304,0,1.3790817,0.1206322,1.9740372,0.3632774
			c0.5976944,0.2426414,1.1103973,0.5798721,1.5435944,1.0116959c0.4304428,0.4331894,0.7676773,0.9431496,1.0116882,1.5326195
			C91.7139587,52.405262,91.8373413,53.0468216,91.8373413,53.7404785z M90.4198685,53.7404785
			c0-0.5099602-0.0795059-0.9883919-0.2440109-1.433918c-0.164505-0.4455299-0.3975525-0.8321152-0.6991425-1.1597481
			c-0.30159-0.3276367-0.6634979-0.586731-1.0884628-0.7759094c-0.4277039-0.1905479-0.9075089-0.2851372-1.4448853-0.2851372
			s-1.0199203,0.0945892-1.4448853,0.2851372c-0.4249725,0.1891785-0.7868729,0.4482727-1.0802383,0.7759094
			c-0.2961121,0.3276329-0.526413,0.7142181-0.6881714,1.1597481c-0.164505,0.4455261-0.2467575,0.9239578-0.2467575,1.433918
			c0,0.5113297,0.0822525,0.9897614,0.2467575,1.4352913c0.1617584,0.4455299,0.3920593,0.8321114,0.6881714,1.1597481
			c0.2933655,0.3276367,0.6552658,0.5867271,1.0802383,0.7759056c0.4249649,0.1905518,0.9075089,0.285141,1.4448853,0.285141
			s1.0171814-0.0945892,1.4448853-0.285141c0.4249649-0.1891785,0.7868729-0.4482689,1.0884628-0.7759056
			s0.5346375-0.7142181,0.6991425-1.1597481S90.4198685,54.2518082,90.4198685,53.7404785z"/>
		<path fill="#DC4405" d="M100.5450439,58.3397179c-0.0274124-0.248127-0.043869-0.4948807-0.0493469-0.7375259
			c-0.0082245-0.2412682-0.0109711-0.4880257-0.0109711-0.7361488h-0.0383835
			c-0.1453094,0.2481232-0.3262634,0.4784279-0.5510864,0.6881714c-0.2220764,0.2097397-0.4715729,0.3893242-0.7457428,0.5401192
			c-0.2741776,0.150795-0.567543,0.2686882-0.8746109,0.3536797c-0.3070755,0.0849953-0.6114044,0.127491-0.9129944,0.127491
			c-1.1789398,0-2.0508118-0.3111839-2.6156006-0.9335556c-0.5620575-0.6223717-0.8444519-1.5093193-0.8444519-2.6622124v-5.8371239
			h1.2968369v5.090004c0,0.5113335,0.0411224,0.9623451,0.1178894,1.3557816
			c0.0795135,0.3934364,0.2138519,0.7238159,0.403038,0.9925041c0.1891785,0.2686882,0.4468994,0.4715767,0.7676773,0.6086617
			c0.3207855,0.1384583,0.7238159,0.2070007,1.2090988,0.2070007c0.0630646,0,0.2467575-0.0260468,0.5483475-0.0781403
			c0.30159-0.053463,0.6196289-0.197403,0.9541168-0.4331894c0.3344879-0.2357903,0.6306-0.5894699,0.8937988-1.0610466
			c0.2632065-0.4715767,0.392067-1.1268501,0.392067-1.9658165v-4.7157593h1.2968369v7.1723442
			c0,0.2494965,0.0109634,0.5634232,0.030159,0.9445229c0.0191879,0.3797264,0.043869,0.7402649,0.0685425,1.0802383H100.5450439z"
			/>
		<path fill="#DC4405" d="M104.6685944,52.0118256c0-0.405777-0.0082245-0.8184052-0.02742-1.2378883
			c-0.0219345-0.4194832-0.0383835-0.9637146-0.0493469-1.6313248h1.2776413v1.7094612h0.0383835
			c0.090477-0.2481232,0.2220764-0.4880257,0.392067-0.7169571c0.1699829-0.2289352,0.3783569-0.435936,0.6196289-0.6196289
			c0.241272-0.1836967,0.5236664-0.3303795,0.8444519-0.4414177c0.3207779-0.1124115,0.6854248-0.167244,1.0912018-0.167244
			c0.3673935,0,0.6881714,0.0383835,0.9623489,0.1178932l-0.254982,1.2776413
			c-0.1699905-0.0657997-0.419487-0.0987015-0.7457504-0.0987015c-0.4989929,0-0.9239883,0.0945892-1.2776413,0.2851372
			c-0.3536835,0.1891785-0.6497879,0.4318237-0.8855743,0.7265587s-0.4085159,0.6127739-0.5209274,0.9527473
			c-0.1096725,0.3413429-0.167244,0.6689796-0.167244,0.9829063v5.1887093h-1.2968369V52.0118256z"/>
		<path fill="#DC4405" d="M117.5053329,49.1426125h1.2968369v1.5326233h0.0411224
			c0.208374-0.3139267,0.4578705-0.5826187,0.7457504-0.8060684c0.2878799-0.2220764,0.5894699-0.4057732,0.9047699-0.5497131
			c0.3125534-0.14394,0.6388168-0.2494965,0.9705658-0.3153c0.3344879-0.0644302,0.6525269-0.0973282,0.9541168-0.0973282
			c0.721077,0,1.3790894,0.1206322,1.9740448,0.3632774c0.5976944,0.2426414,1.1103973,0.5798721,1.5435867,1.0116959
			c0.4331894,0.4331894,0.7704239,0.9431496,1.0116959,1.5326195c0.2440109,0.5908432,0.3646469,1.2324028,0.3646469,1.9260597
			c0,0.6950264-0.120636,1.3365898-0.3646469,1.9260597c-0.241272,0.5894699-0.5785065,1.1007996-1.0116959,1.5339928
			c-0.4331894,0.4318199-0.9458923,0.7690544-1.5435867,1.0116959c-0.5949554,0.2426414-1.2529678,0.3632774-1.9740448,0.3632774
			c-0.30159,0-0.6196289-0.0329018-0.9541168-0.0987015c-0.331749-0.0658035-0.6580124-0.1699867-0.9705658-0.3139267
			c-0.3153-0.14394-0.61689-0.3276367-0.9047699-0.5497169c-0.2878799-0.2234497-0.5373764-0.4921379-0.7457504-0.8060646
			h-0.0411224V64h-1.2968369V49.1426125z M125.8977432,53.7404785c0-0.5099602-0.0822525-0.9883919-0.2467575-1.433918
			c-0.164505-0.4455299-0.3948059-0.8321152-0.6963959-1.1597481c-0.30159-0.3276367-0.6662369-0.586731-1.0912018-0.7759094
			c-0.4249725-0.1905479-0.9075089-0.2851372-1.4448929-0.2851372c-0.5373764,0-1.0281448,0.0945892-1.4750443,0.2851372
			c-0.4441605,0.1891785-0.8307419,0.4482727-1.1570053,0.7759094c-0.32901,0.3276329-0.5839844,0.7142181-0.7676849,1.1597481
			c-0.1836929,0.4455261-0.2741699,0.9239578-0.2741699,1.433918c0,0.5113297,0.090477,0.9897614,0.2741699,1.4352913
			c0.1837006,0.4455299,0.4386749,0.8321114,0.7676849,1.1597481c0.3262634,0.3276367,0.7128448,0.5867271,1.1570053,0.7759056
			c0.4468994,0.1905518,0.9376678,0.285141,1.4750443,0.285141c0.537384,0,1.0199203-0.0945892,1.4448929-0.285141
			c0.4249649-0.1891785,0.7896118-0.4482689,1.0912018-0.7759056s0.5318909-0.7142181,0.6963959-1.1597481
			S125.8977432,54.2518082,125.8977432,53.7404785z"/>
		<path fill="#DC4405" d="M135.5074768,52.6999969v-0.2357903c0-1.5860863-0.7841339-2.3784409-2.3578796-2.3784409
			c-1.0747528,0-2.0096893,0.3605347-2.8102722,1.0802383l-0.7841339-0.9225922
			c0.8636475-0.8910599,2.1604767-1.336586,3.8905029-1.336586c0.4441681,0,0.8746185,0.0657997,1.2858734,0.1960297
			c0.4140015,0.1316032,0.7704315,0.331749,1.0720215,0.5990677c0.3015747,0.2686882,0.5428467,0.6072922,0.7265472,1.0130653
			c0.1837006,0.405777,0.2769165,0.8910599,0.2769165,1.4531136v4.1084671c0,0.3536835,0.016449,0.7238159,0.0493469,1.1103973
			c0.0301666,0.3865852,0.0685425,0.7046242,0.1069336,0.9527512h-1.2584534
			c-0.0383911-0.2220802-0.0685425-0.4647217-0.0877686-0.7265587c-0.019165-0.2632027-0.0301208-0.5181847-0.0301208-0.7676811
			h-0.0383911c-0.3811035,0.6168861-0.8280029,1.0583038-1.3461761,1.326992
			c-0.5181885,0.2686882-1.151535,0.4030342-1.8972778,0.4030342c-0.405777,0-0.7978363-0.0562057-1.1789398-0.167244
			c-0.3811035-0.111042-0.718338-0.2810287-1.0116882-0.5113335c-0.2961121-0.2289314-0.5319061-0.5099602-0.7073669-0.8444481
			c-0.1782227-0.3344917-0.2659454-0.7238159-0.2659454-1.1693459c0-0.7471161,0.1946564-1.3324738,0.5812378-1.758812
			c0.3838348-0.4263382,0.8691254-0.7430077,1.4531097-0.9527473c0.5839844-0.2097435,1.2063599-0.3413467,1.8671112-0.3934402
			c0.6607666-0.0520897,1.2666779-0.0781364,1.8177643-0.0781364H135.5074768z M134.8412323,53.7610435
			c-0.3289948,0-0.7375183,0.016449-1.2282867,0.0493507c-0.4907684,0.0328979-0.9623413,0.1110382-1.4147339,0.2357864
			c-0.4523773,0.1247482-0.8389587,0.3166695-1.1597443,0.5785027c-0.3207855,0.2632065-0.4825439,0.6237411-0.4825439,1.0816116
			c0,0.3015862,0.0630646,0.5606804,0.1864471,0.7759056c0.1261139,0.2165947,0.2933502,0.3934364,0.5017242,0.5305214
			c0.208374,0.1384583,0.4414215,0.2357903,0.6991425,0.294735c0.2549744,0.0589485,0.5126953,0.0891075,0.7759094,0.0891075
			c0.4715729,0,0.8800964-0.0781403,1.2282867-0.2357864c0.345459-0.15765,0.6388245-0.3701324,0.8746185-0.6388245
			c0.2357788-0.2686882,0.4085083-0.5826149,0.5209198-0.9431496c0.1096649-0.3605385,0.164505-0.7443771,0.164505-1.1501541
			v-0.6676064H134.8412323z"/>
		<path fill="#DC4405" d="M143.3296051,56.7481461l2.8102722-7.6055336h1.5737457l-4.6006165,11.594738
			c-0.2741699,0.7073669-0.6251068,1.2707901-1.0500793,1.6902733c-0.4249573,0.4194832-1.0391083,0.6292229-1.8369446,0.6292229
			c-0.197403,0-0.397583-0.0068512-0.6004486-0.0205612c-0.2028809-0.0123367-0.4030304-0.0520935-0.5976868-0.1178932
			l0.137085-1.2570801c0.2741699,0.14394,0.6004333,0.2152252,0.9815369,0.2152252
			c0.4578705,0,0.8197784-0.14394,1.0802307-0.4318199c0.2632141-0.2878838,0.493515-0.6950264,0.6881714-1.2186966
			l0.6689911-1.7684097l-3.7726135-9.3149986h1.6313324L143.3296051,56.7481461z"/>
		<path fill="#DC4405" d="M149.8740997,51.1865654c0-0.3413429-0.0082245-0.6813164-0.0301666-1.0226631
			c-0.0191956-0.3399734-0.0411224-0.6813164-0.0685425-1.0212898h1.3955383v1.3955345h0.0411224
			c0.312561-0.5373764,0.7484894-0.9445229,1.305069-1.2186928c0.5565643-0.2755432,1.1103973-0.4126282,1.6614838-0.4126282
			c0.2494965,0,0.5126953,0.0260429,0.7950897,0.0781364s0.553833,0.1480522,0.8170319,0.285141
			c0.2604675,0.137085,0.5072174,0.3303757,0.734787,0.5798721c0.2303009,0.2494965,0.4249725,0.5702782,0.5812378,0.9623451
			c0.2604675-0.5894699,0.6772156-1.0541916,1.2474823-1.3955345c0.570282-0.3399734,1.1624908-0.5099602,1.7793884-0.5099602
			c1.1789398,0,2.0507965,0.3111839,2.612854,0.9335556c0.5647888,0.6223679,0.8444519,1.5093155,0.8444519,2.6622086v5.8371277
			h-1.2968292v-5.365551c0-0.9294434-0.164505-1.6436615-0.4907684-2.1412849
			c-0.3262634-0.4976196-0.9376678-0.7471161-1.8287354-0.7471161c-0.4825439,0-0.8910522,0.0945892-1.2173157,0.2851372
			c-0.3262787,0.1891785-0.5922241,0.4414177-0.795105,0.7567139c-0.2028809,0.3139305-0.3509369,0.6717224-0.4441528,1.0706444
			c-0.0904846,0.4002914-0.1371002,0.8156624-0.1371002,1.2474823v4.8939743h-1.2968292v-5.365551
			c0-0.9294434-0.164505-1.6436615-0.4907684-2.1412849c-0.32901-0.4976196-0.9376678-0.7471161-1.8287201-0.7471161
			c-0.076767,0-0.2577209,0.0260468-0.5401306,0.0781364c-0.2823944,0.053463-0.5730133,0.1974068-0.8746033,0.4331932
			s-0.5730133,0.5894699-0.8142853,1.0610466c-0.2440186,0.4715767-0.3646545,1.1268463-0.3646545,1.9644432v4.7171326h-1.2968292
			V51.1865654z"/>
		<path fill="#DC4405" d="M167.2264557,54.094162c0.0383759,0.4592361,0.1507874,0.8910599,0.3344879,1.2982025
			c0.1836853,0.405777,0.4249573,0.7567177,0.7265472,1.0514526s0.647049,0.5264091,1.0418549,0.6977654
			c0.3920746,0.1699867,0.8170319,0.254982,1.2776489,0.254982c0.6936493,0,1.2940826-0.1603928,1.7985687-0.4811707
			c0.5017395-0.3207817,0.8855743-0.6909142,1.1487732-1.1103973l1.0007324,0.8252563
			c-0.5483398,0.6936569-1.1542664,1.1926498-1.8177643,1.4928665c-0.6607513,0.30159-1.3708496,0.4523849-2.1303101,0.4523849
			c-0.6826935,0-1.3132935-0.120636-1.8972778-0.3632774s-1.0829773-0.5798759-1.5024567-1.0116959
			c-0.4194794-0.4331932-0.751236-0.9445229-0.9925079-1.5339928c-0.2440186-0.5894699-0.3646545-1.2310333-0.3646545-1.9260597
			c0-0.6936569,0.1179047-1.3352165,0.3536835-1.9260597c0.2357941-0.5894699,0.5620575-1.0994301,0.9815369-1.5326195
			c0.4194946-0.4318237,0.9129944-0.7690544,1.4750519-1.0116959c0.5620575-0.2426453,1.1734619-0.3632774,1.8287201-0.3632774
			c0.6936646,0,1.31604,0.1247482,1.8671265,0.3728714c0.5483398,0.2494965,1.0116882,0.5798759,1.3845673,0.9925041
			c0.3728638,0.4126282,0.6580048,0.8979149,0.8554077,1.454483s0.2933655,1.1501503,0.2933655,1.7780075v0.5894699H167.2264557z
			 M173.4748383,53.0331154c0-0.8773499-0.2604675-1.5874557-0.7841339-2.1316872
			c-0.526413-0.5442352-1.2584534-0.8156624-2.2016144-0.8156624c-0.4194794,0-0.8252563,0.0822487-1.2200623,0.2453842
			c-0.3920593,0.1645012-0.7375183,0.3838387-1.0308838,0.6580124c-0.2961121,0.2755432-0.5318909,0.5894699-0.7073669,0.9431496
			c-0.1782074,0.3550529-0.2659454,0.7210732-0.2659454,1.1008034H173.4748383z"/>
		<path fill="#DC4405" d="M178.5854034,49.1426125c0.0246735,0.248127,0.0411224,0.4948807,0.0493469,0.7361526
			c0.0054779,0.2426414,0.0082245,0.4893951,0.0082245,0.7375221h0.0411224
			c0.1425781-0.248127,0.3262634-0.4784317,0.5483551-0.6881714c0.2220764-0.2097435,0.4715729-0.3893242,0.7484894-0.5401192
			c0.2741699-0.150795,0.5647888-0.2686882,0.8746033-0.3536835c0.3070679-0.0849915,0.6114044-0.1274872,0.9129944-0.1274872
			c1.1789398,0,2.0508118,0.3111839,2.612854,0.9335556c0.5648041,0.6223679,0.8444519,1.5093155,0.8444519,2.6622086v5.8371277
			h-1.2968292v-5.0900078c0-1.0212898-0.1754761-1.8040504-0.5291595-2.3482819
			c-0.3536682-0.5442352-1.0089417-0.8156624-1.9658051-0.8156624c-0.0658112,0-0.2494965,0.0260468-0.5510864,0.0781364
			c-0.30159,0.053463-0.6168823,0.1974068-0.9513855,0.4331932c-0.3344879,0.2357864-0.6333313,0.5894699-0.8937988,1.0610466
			c-0.2631989,0.4715767-0.3948059,1.1268463-0.3948059,1.9644432v4.7171326h-1.2968292v-7.1737137
			c0-0.248127-0.0082245-0.5620537-0.0301666-0.9431534c-0.0191803-0.3797302-0.0411224-0.7402649-0.0685425-1.0802383H178.5854034z
			"/>
		<path fill="#DC4405" d="M192.7354279,50.3215523h-2.6539917v5.4244957c0,0.3399734,0.0328979,0.6182594,0.0987091,0.8348541
			c0.0657959,0.2165947,0.1562653,0.3824692,0.2741699,0.5003624c0.1178894,0.1192665,0.260437,0.2001457,0.422226,0.2467575
			c0.164505,0.0452385,0.345459,0.0685425,0.5400848,0.0685425c0.2248535,0,0.4524078-0.0329018,0.6882019-0.0987015
			c0.2357941-0.0658035,0.4523773-0.150795,0.6497955-0.254982l0.0575714,1.1981316
			c-0.4825439,0.2234535-1.0665283,0.3344917-1.7492218,0.3344917c-0.2467499,0-0.5072174-0.0329018-0.7759094-0.0987015
			c-0.268692-0.0658035-0.5126953-0.1891785-0.7347717-0.3728752c-0.224823-0.1836929-0.4085236-0.4318199-0.5510864-0.7471199
			c-0.1453247-0.3139267-0.2165985-0.7265549-0.2165985-1.2378845v-5.7973709h-1.9466248v-1.1789398h1.9466248v-2.5950394h1.2968292
			v2.5950394h2.6539917V50.3215523z"/>
		<path fill="#DC4405" d="M201.8543854,54.094162c0.0383911,0.4592361,0.1508026,0.8910599,0.3344879,1.2982025
			c0.1837006,0.405777,0.4249725,0.7567177,0.7265625,1.0514526s0.647049,0.5264091,1.0418549,0.6977654
			c0.3920593,0.1699867,0.8170319,0.254982,1.2776337,0.254982c0.6936646,0,1.2940979-0.1603928,1.7985687-0.4811707
			c0.5017395-0.3207817,0.8855896-0.6909142,1.1487885-1.1103973l1.0007324,0.8252563
			c-0.5483551,0.6936569-1.1542664,1.1926498-1.8177643,1.4928665c-0.6607513,0.30159-1.3708649,0.4523849-2.1303253,0.4523849
			c-0.6826782,0-1.3132782-0.120636-1.8972626-0.3632774s-1.0829773-0.5798759-1.5024719-1.0116959
			c-0.4194794-0.4331932-0.7512207-0.9445229-0.9924927-1.5339928c-0.2440186-0.5894699-0.3646545-1.2310333-0.3646545-1.9260597
			c0-0.6936569,0.1178894-1.3352165,0.3536835-1.9260597c0.2357941-0.5894699,0.5620575-1.0994301,0.9815369-1.5326195
			c0.4194794-0.4318237,0.9129944-0.7690544,1.4750519-1.0116959c0.5620422-0.2426453,1.1734467-0.3632774,1.8287201-0.3632774
			c0.6936646,0,1.3160248,0.1247482,1.8671112,0.3728714c0.5483551,0.2494965,1.0117035,0.5798759,1.3845673,0.9925041
			c0.372879,0.4126282,0.65802,0.8979149,0.855423,1.454483s0.2933655,1.1501503,0.2933655,1.7780075v0.5894699H201.8543854z
			 M208.1027679,53.0331154c0-0.8773499-0.2604523-1.5874557-0.7841339-2.1316872
			c-0.5263977-0.5442352-1.2584381-0.8156624-2.2015991-0.8156624c-0.4194794,0-0.8252563,0.0822487-1.2200623,0.2453842
			c-0.3920746,0.1645012-0.7375183,0.3838387-1.0308838,0.6580124c-0.2961121,0.2755432-0.5319061,0.5894699-0.7073669,0.9431496
			c-0.1782074,0.3550529-0.2659454,0.7210732-0.2659454,1.1008034H208.1027679z"/>
		<path fill="#DC4405" d="M214.3511505,53.4265518l-3.3394165-4.2839394h1.7684174l2.5552826,3.4394875l2.4373932-3.4394875
			h1.6093903l-3.2023315,4.2839394l3.8521118,4.913166h-1.7684021l-3.0871887-4.0289612l-2.9665375,4.0289612h-1.6505127
			L214.3511505,53.4265518z"/>
		<path fill="#DC4405" d="M221.9375,49.1426125h1.2968292v1.5326233h0.0411224
			c0.208374-0.3139267,0.4578705-0.5826187,0.7457581-0.8060684c0.2878723-0.2220764,0.5894623-0.4057732,0.9047699-0.5497131
			c0.3125458-0.14394,0.6388092-0.2494965,0.9705658-0.3153c0.3344879-0.0644302,0.6525269-0.0973282,0.9541168-0.0973282
			c0.7210693,0,1.3790894,0.1206322,1.9740448,0.3632774c0.5976868,0.2426414,1.1103973,0.5798721,1.5435791,1.0116959
			c0.433197,0.4331894,0.7704315,0.9431496,1.0117035,1.5326195c0.2440033,0.5908432,0.3646393,1.2324028,0.3646393,1.9260597
			c0,0.6950264-0.120636,1.3365898-0.3646393,1.9260597c-0.241272,0.5894699-0.5785065,1.1007996-1.0117035,1.5339928
			c-0.4331818,0.4318199-0.9458923,0.7690544-1.5435791,1.0116959c-0.5949554,0.2426414-1.2529755,0.3632774-1.9740448,0.3632774
			c-0.30159,0-0.6196289-0.0329018-0.9541168-0.0987015c-0.3317566-0.0658035-0.65802-0.1699867-0.9705658-0.3139267
			c-0.3153076-0.14394-0.6168976-0.3276367-0.9047699-0.5497169c-0.2878876-0.2234497-0.537384-0.4921379-0.7457581-0.8060646
			h-0.0411224V64H221.9375V49.1426125z M230.3299103,53.7404785c0-0.5099602-0.0822601-0.9883919-0.2467651-1.433918
			c-0.1644897-0.4455299-0.3948059-0.8321152-0.6963959-1.1597481c-0.30159-0.3276367-0.6662292-0.586731-1.0912018-0.7759094
			c-0.4249725-0.1905479-0.9075012-0.2851372-1.4448853-0.2851372s-1.0281525,0.0945892-1.4750519,0.2851372
			c-0.4441528,0.1891785-0.8307343,0.4482727-1.1569977,0.7759094c-0.32901,0.3276329-0.5839844,0.7142181-0.7676849,1.1597481
			c-0.1837006,0.4455261-0.2741699,0.9239578-0.2741699,1.433918c0,0.5113297,0.0904694,0.9897614,0.2741699,1.4352913
			s0.4386749,0.8321114,0.7676849,1.1597481c0.3262634,0.3276367,0.7128448,0.5867271,1.1569977,0.7759056
			c0.4468994,0.1905518,0.9376678,0.285141,1.4750519,0.285141s1.0199127-0.0945892,1.4448853-0.285141
			c0.4249725-0.1891785,0.7896118-0.4482689,1.0912018-0.7759056s0.5319061-0.7142181,0.6963959-1.1597481
			C230.2476501,54.7302399,230.3299103,54.2518082,230.3299103,53.7404785z"/>
		<path fill="#DC4405" d="M234.949707,54.094162c0.0383911,0.4592361,0.1507874,0.8910599,0.3344574,1.2982025
			c0.1837311,0.405777,0.4250031,0.7567177,0.726593,1.0514526s0.647049,0.5264091,1.0418549,0.6977654
			c0.3920593,0.1699867,0.8170319,0.254982,1.2776337,0.254982c0.6936646,0,1.2940979-0.1603928,1.7985687-0.4811707
			c0.5017395-0.3207817,0.8855743-0.6909142,1.1487885-1.1103973l1.0007172,0.8252563
			c-0.5483398,0.6936569-1.1542511,1.1926498-1.817749,1.4928665c-0.6607666,0.30159-1.3708649,0.4523849-2.1303253,0.4523849
			c-0.6826782,0-1.3132782-0.120636-1.8972626-0.3632774c-0.5839996-0.2426414-1.0829926-0.5798759-1.5024719-1.0116959
			c-0.4194794-0.4331932-0.751236-0.9445229-0.9924927-1.5339928c-0.2440186-0.5894699-0.3646545-1.2310333-0.3646545-1.9260597
			c0-0.6936569,0.1178894-1.3352165,0.3536835-1.9260597c0.2357788-0.5894699,0.5620422-1.0994301,0.9815369-1.5326195
			c0.4194794-0.4318237,0.9129944-0.7690544,1.4750366-1.0116959c0.5620575-0.2426453,1.1734619-0.3632774,1.8287354-0.3632774
			c0.6936493,0,1.3160248,0.1247482,1.8671112,0.3728714c0.5483398,0.2494965,1.0116882,0.5798759,1.3845673,0.9925041
			s0.65802,0.8979149,0.855423,1.454483s0.2933655,1.1501503,0.2933655,1.7780075v0.5894699H234.949707z M241.1980896,53.0331154
			c0-0.8773499-0.2604675-1.5874557-0.7841339-2.1316872c-0.526413-0.5442352-1.2584534-0.8156624-2.2015991-0.8156624
			c-0.4194794,0-0.8252563,0.0822487-1.2200623,0.2453842c-0.3920746,0.1645012-0.7375336,0.3838387-1.030899,0.6580124
			c-0.2960968,0.2755432-0.5318909,0.5894699-0.7073517,0.9431496c-0.1782227,0.3550529-0.2659454,0.7210732-0.2659454,1.1008034
			H241.1980896z"/>
		<path fill="#DC4405" d="M244.811676,52.0118256c0-0.405777-0.0082245-0.8184052-0.02742-1.2378883
			c-0.0219269-0.4194832-0.0383759-0.9637146-0.0493469-1.6313248h1.2776489v1.7094612h0.0383759
			c0.0904846-0.2481232,0.2220764-0.4880257,0.3920746-0.7169571c0.1699829-0.2289352,0.3783569-0.435936,0.6196289-0.6196289
			c0.241272-0.1836967,0.5236664-0.3303795,0.8444366-0.4414177c0.3207855-0.1124115,0.6854401-0.167244,1.091217-0.167244
			c0.3673859,0,0.6881714,0.0383835,0.9623413,0.1178932l-0.2549744,1.2776413
			c-0.1699982-0.0657997-0.4194946-0.0987015-0.7457581-0.0987015c-0.4989929,0-0.9239502,0.0945892-1.2776337,0.2851372
			c-0.3536835,0.1891785-0.6497955,0.4318237-0.8855896,0.7265587c-0.2357788,0.294735-0.4085083,0.6127739-0.5209198,0.9527473
			c-0.1096649,0.3413429-0.1672516,0.6689796-0.1672516,0.9829063v5.1887093h-1.2968292V52.0118256z"/>
		<path fill="#DC4405" d="M257.2344055,50.3215523h-2.6539764v5.4244957c0,0.3399734,0.0328979,0.6182594,0.0987091,0.8348541
			c0.0657959,0.2165947,0.1562653,0.3824692,0.2741699,0.5003624c0.1178894,0.1192665,0.2604675,0.2001457,0.422226,0.2467575
			c0.164505,0.0452385,0.345459,0.0685425,0.5401154,0.0685425c0.224823,0,0.4523926-0.0329018,0.6881714-0.0987015
			c0.2357788-0.0658035,0.4523926-0.150795,0.6497803-0.254982l0.0575867,1.1981316
			c-0.4825439,0.2234535-1.0665283,0.3344917-1.7492218,0.3344917c-0.2467499,0-0.5072174-0.0329018-0.7759094-0.0987015
			c-0.268692-0.0658035-0.5126953-0.1891785-0.7347717-0.3728752c-0.224823-0.1836929-0.4085236-0.4318199-0.5510864-0.7471199
			c-0.1453094-0.3139267-0.2165985-0.7265549-0.2165985-1.2378845v-5.7973709h-1.9466248v-1.1789398h1.9466248v-2.5950394h1.2968292
			v2.5950394h2.6539764V50.3215523z"/>
	</g>
	<g id="Wortmarke">
		<path fill="#75787B" d="M68.6889877,30.9060535c-1.0144348,1.2282925-2.1632233,2.1330585-3.4436035,2.7170467
			c-1.2831268,0.5839844-2.6704369,0.8759804-4.1591911,0.8759804c-1.581974,0-3.0433121-0.268692-4.3840141-0.8088112
			c-1.343441-0.5387459-2.4922218-1.2940903-3.4463425-2.2674026c-0.9541168-0.9733105-1.6998672-2.1262035-2.2345009-3.4600506
			c-0.5373802-1.3311062-0.8060684-2.7910728-0.8060684-4.3785305c0-1.5874557,0.2686882-3.0474224,0.8060684-4.3798981
			c0.5346336-1.3324776,1.2803841-2.4853706,2.2345009-3.4586821c0.9541206-0.9733114,2.1029015-1.7300262,3.4463425-2.268775
			c1.3407021-0.5387478,2.8020401-0.8088074,4.3840141-0.8088074c1.5189133,0,2.9281578,0.3139267,4.2249947,0.9431524
			c1.2968292,0.6292248,2.4538345,1.5120592,3.468277,2.6498728l-2.1467667,1.6176167
			c-0.7759094-0.8677559-1.6258469-1.5490723-2.5498047-2.0439539c-0.9267006-0.4935093-1.9246864-0.7416353-2.9967003-0.7416353
			c-1.2529678,0-2.3880386,0.2248211-3.3997345,0.6744633c-1.0144386,0.4496422-1.8808212,1.055563-2.5964088,1.8191319
			c-0.7155914,0.7635689-1.2584496,1.6614838-1.6313248,2.6951122s-0.5593109,2.1344299-0.5593109,3.3024025
			c0,1.1679745,0.1864357,2.2674046,0.5593109,3.301033s0.9157333,1.9315434,1.6313248,2.6951122
			c0.7155876,0.7635689,1.5819702,1.3708611,2.5964088,1.8191319c1.0116959,0.4496422,2.1467667,0.6744652,3.3997345,0.6744652
			c1.1323318,0,2.1687012-0.2618351,3.1063728-0.7868748c0.9404068-0.5236702,1.7519608-1.2200661,2.4401321-2.087822
			L68.6889877,30.9060535z"/>
		<path fill="#75787B" d="M71.0605774,23.5842857c0-1.5874557,0.2686844-3.0474224,0.8060608-4.3798981
			c0.5346375-1.3324776,1.2803879-2.4853706,2.2345047-3.4586821s2.1028976-1.7300262,3.4463425-2.268775
			c1.3407059-0.5387478,2.8020401-0.8088074,4.3840179-0.8088074c1.5792313,0,3.032341,0.2700596,4.3593369,0.8088074
			c1.3269882,0.5387487,2.475769,1.2954636,3.4435959,2.268775c0.9705734,0.9733114,1.7245483,2.1262045,2.2591782,3.4586821
			c0.5373764,1.3324757,0.8060684,2.7924423,0.8060684,4.3798981c0,1.5874577-0.268692,3.0474243-0.8060684,4.3785305
			c-0.5346298,1.333847-1.2886047,2.4867401-2.2591782,3.4600506c-0.9678268,0.9733124-2.1166077,1.7286568-3.4435959,2.2674026
			c-1.3269958,0.5401192-2.7801056,0.8088112-4.3593369,0.8088112c-1.5819778,0-3.0433121-0.268692-4.3840179-0.8088112
			c-1.3434448-0.5387459-2.4922256-1.2940903-3.4463425-2.2674026c-0.9541168-0.9733105-1.6998672-2.1262035-2.2345047-3.4600506
			C71.3292618,26.6317101,71.0605774,25.1717434,71.0605774,23.5842857z M73.7447205,23.5842857
			c0,1.1679745,0.1864395,2.2674046,0.5593109,3.301033s0.9157333,1.9315434,1.6313248,2.6951122
			s1.5819702,1.3708611,2.5964127,1.8191319c1.0116882,0.4496422,2.1467667,0.6744652,3.3997345,0.6744652
			c1.2502213,0,2.3852921-0.224823,3.3969879-0.6744652c1.0144348-0.4482708,1.8808212-1.055563,2.5964127-1.8191319
			s1.2584457-1.6614838,1.6313248-2.6951122c0.3728714-1.0336285,0.5593109-2.1330585,0.5593109-3.301033
			c0-1.1679726-0.1864395-2.268774-0.5593109-3.3024025c-0.372879-1.0336285-0.9157333-1.9315434-1.6313248-2.6951122
			s-1.5819778-1.3694897-2.5964127-1.8191319c-1.0116959-0.4496422-2.1467667-0.6744633-3.3969879-0.6744633
			c-1.2529678,0-2.3880463,0.2248211-3.3997345,0.6744633c-1.0144424,0.4496422-1.8808212,1.055563-2.5964127,1.8191319
			s-1.2584534,1.6614838-1.6313248,2.6951122S73.7447205,22.4163132,73.7447205,23.5842857z"/>
		<path fill="#75787B" d="M96.3310165,19.0467377c0-0.3893242-0.0137024-0.8609009-0.0438614-1.4147282
			s-0.0520935-1.115881-0.0685425-1.6847878c-0.01371-0.5689068-0.0356445-1.1008005-0.0658035-1.5943108
			c-0.030159-0.4948807-0.043869-0.8759804-0.043869-1.14604h2.6841431c0.02742,0.7800198,0.0493546,1.5271387,0.0658035,2.2468414
			c0.01371,0.7183304,0.0520935,1.1830521,0.1124115,1.3914223h0.134346
			c0.5346298-1.1378136,1.4311752-2.117979,2.6841431-2.9418659c1.2502213-0.8225164,2.7115631-1.2351456,4.3812714-1.2351456
			c1.6121292,0,2.9226761,0.2549801,3.9371109,0.7635689c1.0144348,0.5099602,1.8122787,1.176199,2.3935242,1.9987154
			c0.5812454,0.8238878,0.9842758,1.7752638,1.2090988,2.8527613c0.2220764,1.0774956,0.3344879,2.1865215,0.3344879,3.324337
			V33.960331h-2.6841431V21.7418499c0-0.8375969-0.074028-1.6546288-0.224823-2.4483566
			c-0.148056-0.7923584-0.4085159-1.5038338-0.7813873-2.1330605c-0.372879-0.6292248-0.8938065-1.1309586-1.5655289-1.5052042
			c-0.6717148-0.3742447-1.5435867-0.5620527-2.6183395-0.5620527c-0.9815369,0-1.9164658,0.1727285-2.7938156,0.5168142
			c-0.8800888,0.3454571-1.6422882,0.8691263-2.2811127,1.5723772c-0.6415634,0.7046223-1.1487808,1.5874557-1.5216522,2.6498737
			c-0.372879,1.0637875-0.5593109,2.3140125-0.5593109,3.7520447V33.960331h-2.6841507V19.0467377z"/>
		<path fill="#75787B" d="M133.9501801,18.3736458c-0.416748-0.5990658-1.0446014-1.1008015-1.8780823-1.5052052
			c-0.8362274-0.4044037-1.6861572-0.6072922-2.5498047-0.6072922c-0.9842682,0-1.8506546,0.2028885-2.5936661,0.6072922
			c-0.7457428,0.4044037-1.3653717,0.9362965-1.8588867,1.5943108c-0.4907684,0.6593838-0.8554153,1.3996487-1.0939484,2.2235355
			c-0.2385254,0.8238869-0.3591614,1.6546288-0.3591614,2.4935951s0.1261215,1.6697083,0.3810959,2.4922256
			c0.252243,0.8238869,0.6333389,1.5655231,1.1405563,2.2235355c0.507225,0.6593838,1.1405563,1.1912785,1.9000168,1.5956821
			c0.7621994,0.4030323,1.6477661,0.6059208,2.6622162,0.6059208c0.8334808,0,1.6697083-0.1645031,2.5059204-0.4935112
			c0.8334961-0.3303776,1.5052185-0.8088074,2.0124359-1.4380322l3.3531189,3.4134426
			c-0.8937988,0.9596043-2.0343628,1.6998692-3.4216614,2.2235355c-1.3845825,0.5236702-2.8842926,0.7868767-4.4936829,0.7868767
			c-1.5819702,0-3.0789566-0.254982-4.4964294-0.7635727c-1.4174652-0.5099602-2.6539841-1.2584496-3.7122879-2.2468395
			s-1.8945312-2.1851521-2.5059357-3.5930252s-0.9157333-3.0104103-0.9157333-4.8062382
			c0-1.7368793,0.3043289-3.3092575,0.9157333-4.7171307c0.6114044-1.4078751,1.4394073-2.6060066,2.4840012-3.5930262
			c1.0418549-0.98839,2.2591553-1.7519598,3.6437454-2.292079c1.3873138-0.5387478,2.8705826-0.8074369,4.4525528-0.8074369
			c1.5792389,0,3.1091156,0.2988482,4.5841675,0.8979139c1.4750366,0.5990658,2.645752,1.4229536,3.512146,2.4702911
			L133.9501801,18.3736458z"/>
		<path fill="#75787B" d="M155.1053009,31.2199802h-0.1316071c-0.5373688,0.9596043-1.4037628,1.7451038-2.596405,2.3578815
			c-1.1926575,0.6141434-2.5498047,0.9212189-4.0687103,0.9212189c-0.866394,0-1.7684174-0.1124115-2.7060852-0.3372345
			c-0.9404144-0.2234497-1.8067932-0.5976944-2.596405-1.1227341c-0.7896271-0.5236702-1.4448853-1.2118397-1.9685669-2.0658875
			c-0.5209198-0.8540459-0.7813873-1.9096088-0.7813873-3.166687c0-1.6176167,0.4551239-2.9048538,1.365387-3.8630848
			c0.9075012-0.9582329,2.0782166-1.6916428,3.5093994-2.2016029c1.4311829-0.5085888,3.0213776-0.8458214,4.7651062-1.0103245
			c1.7437439-0.1645031,3.451828-0.2467556,5.1215363-0.2467556v-0.5401192c0-1.3475552-0.4852905-2.3428001-1.4531097-2.9871044
			c-0.9705658-0.6429329-2.1248322-0.965086-3.468277-0.965086c-1.1323395,0-2.2207947,0.2399006-3.2653961,0.7183304
			c-1.0445862,0.4798012-1.9082336,1.0637894-2.5936584,1.7519608l-2.7746277-3.2790985
			c1.2228088-1.1378145,2.6320496-1.9918613,4.2277374-2.5607681c1.5956726-0.5689068,3.2132874-0.8526754,4.8528442-0.8526754
			c1.9082336,0,3.4819794,0.2686892,4.7212372,0.8074369c1.2365265,0.5401192,2.2125702,1.243371,2.9281616,2.1124964
			c0.7155914,0.8677549,1.2145844,1.8410654,1.4997253,2.9185629c0.2823944,1.078867,0.4249725,2.1563625,0.4249725,3.2352314
			v13.116394h-5.0118713V31.2199802z M155.0175629,24.1230354h-1.2090912c-0.8636475,0-1.7738953,0.0370121-2.7280121,0.1124096
			c-0.9541321,0.0753975-1.8342133,0.2399006-2.6375427,0.4935093c-0.8060608,0.2549801-1.4777832,0.6141472-2.0151672,1.0788689
			c-0.5346375,0.4647217-0.8033295,1.0994301-0.8033295,1.9082375c0,0.5099602,0.1124115,0.9362984,0.3345032,1.2803841
			c0.2248077,0.3454571,0.5154419,0.6223698,0.8718567,0.8307419c0.3591766,0.2097416,0.762207,0.3591652,1.2091064,0.4496422
			s0.8937988,0.1343441,1.3406982,0.1343441c1.8479156,0,3.2516785-0.4935093,4.2057953-1.4819012
			c0.9541321-0.98839,1.4311829-2.3359451,1.4311829-4.0426674V24.1230354z"/>
		<path fill="#75787B" d="M164.5916595,12.3980637h5.1434631v3.5943966h0.0904846
			c0.5949402-1.2584505,1.4311676-2.275629,2.5031891-3.0542774c1.0747528-0.7786493,2.327713-1.1679735,3.7588959-1.1679735
			c0.208374,0,0.4304504,0.0068541,0.6689758,0.0219336c0.2385406,0.0150795,0.4468994,0.0520935,0.6278534,0.1124105v4.9405813
			c-0.3591614-0.0891056-0.6634979-0.1494236-0.9184723-0.1795826c-0.252243-0.0287876-0.4989929-0.0438671-0.7375183-0.0438671
			c-1.2228088,0-2.2070923,0.2234497-2.9528351,0.6730938c-0.7457581,0.4496422-1.3269958,0.98839-1.7437439,1.6176147
			c-0.4167328,0.6278534-0.7018738,1.2721577-0.8499298,1.9315434c-0.1507874,0.6593838-0.224823,1.1830521-0.224823,1.5723763
			V33.960331h-5.3655396V12.3980637z"/>
		<path fill="#75787B" d="M201.4486084,33.960331h-5.0995941v-3.23386h-0.087738
			c-0.7457428,1.2570782-1.7821198,2.2166824-3.1091156,2.8746948c-1.3269806,0.6580124-2.749939,0.9883919-4.2715912,0.9883919
			c-1.6395569,0-3.1091156-0.308445-4.4059448-0.9212189c-1.2968445-0.6127777-2.4017487-1.4380341-3.3092651-2.470293
			c-0.9102478-1.0336285-1.6121368-2.2468395-2.1029053-3.6382637c-0.4934998-1.3927937-0.7375183-2.8829193-0.7375183-4.470377
			c0-1.5860844,0.252243-3.0693569,0.7594604-4.4470711c0.5072174-1.3763447,1.2228088-2.5744762,2.146759-3.5930262
			c0.9239655-1.018549,2.0288849-1.8191319,3.3092651-2.4031181c1.2831268-0.5839872,2.6841431-0.8759804,4.2057953-0.8759804
			c0.9842834,0,1.8643799,0.1124105,2.6375427,0.3358612c0.7759094,0.2248211,1.4558563,0.5017347,2.0370941,0.8321123
			c0.5812531,0.3290062,1.080246,0.6881723,1.4969788,1.0774965c0.4194794,0.3893242,0.762207,0.7635689,1.0308838,1.122735
			h0.1343536V0h5.3655396V33.960331z M183.7809601,23.0894051c0,0.8389683,0.1261139,1.6779346,0.3811035,2.5155296
			c0.252243,0.8389664,0.6333313,1.5874577,1.1405487,2.2468414c0.5044861,0.6580124,1.1460419,1.1981316,1.9219513,1.6162434
			c0.7759094,0.4194851,1.6861572,0.6292267,2.7280121,0.6292267c0.9842834,0,1.8643646-0.2028885,2.640274-0.6059208
			c0.7759094-0.4044037,1.4394073-0.9362984,1.9904938-1.5956821c0.5510864-0.6580124,0.9678345-1.3996487,1.2529602-2.2235355
			c0.2824097-0.8225174,0.4249725-1.6532593,0.4249725-2.4922256s-0.1425629-1.6765614-0.4249725-2.5155296
			c-0.2851257-0.8389664-0.7018738-1.5874557-1.2529602-2.2468395c-0.5510864-0.6580124-1.2145844-1.1967621-1.9904938-1.6162453
			s-1.6559906-0.6292248-2.640274-0.6292248c-1.0418549,0-1.9521027,0.2015171-2.7280121,0.6059208
			s-1.4174652,0.9362984-1.9219513,1.5956821c-0.5072174,0.6580124-0.8883057,1.3996487-1.1405487,2.2235355
			C183.907074,21.4210682,183.7809601,22.2518101,183.7809601,23.0894051z"/>
		<path fill="#75787B" d="M205.0704346,5.0762968c0-0.8677545,0.3207703-1.6244698,0.9623413-2.2687743
			c0.6388245-0.6429336,1.4531097-0.9650859,2.4373932-0.9650859c0.9842682,0,1.8122711,0.3070728,2.4812469,0.9212183
			c0.6717224,0.6141458,1.0062103,1.3845694,1.0062103,2.3126419c0,0.9294438-0.3344879,1.6998672-1.0062103,2.314013
			c-0.6689758,0.6141458-1.4969788,0.919847-2.4812469,0.919847c-0.9842834,0-1.7985687-0.3207808-2.4373932-0.9650855
			C205.3912048,6.700767,205.0704346,5.9454226,205.0704346,5.0762968z M205.8298798,12.3980637h5.3683014V33.960331h-5.3683014
			V12.3980637z"/>
		<path fill="#75787B" d="M229.0440369,18.1488247c-0.4770508-0.6292248-1.1323242-1.1748276-1.9658051-1.6395493
			c-0.8362274-0.4647217-1.7464905-0.6963978-2.7307587-0.6963978c-0.8636475,0-1.6532593,0.1795826-2.3688507,0.5387478
			s-1.0747528,0.958231-1.0747528,1.7971992c0,0.8389664,0.3948059,1.4298077,1.1871643,1.7738934
			c0.7896118,0.3440857,1.9438782,0.6963978,3.4655304,1.055563c0.806076,0.1795826,1.6176147,0.4194832,2.4373932,0.7183304
			c0.8197784,0.3002186,1.5655212,0.6963978,2.2372437,1.1912785c0.6717224,0.4935093,1.2145844,1.1076546,1.6313324,1.8410645
			c0.4194794,0.7347813,0.6278534,1.6244698,0.6278534,2.6731796c0,1.3173962-0.2467651,2.4332771-0.7375336,3.3462696
			c-0.4934998,0.9143639-1.1487732,1.6546307-1.9685516,2.2235355c-0.8225098,0.5689087-1.7766266,0.9815369-2.8623505,1.2351456
			c-1.091217,0.254982-2.2153168,0.382473-3.3778076,0.382473c-1.6724548,0-3.2955475-0.308445-4.8775177-0.9212189
			c-1.5792389-0.6127777-2.8925171-1.4887543-3.9343719-2.6279411l3.5340729-3.324337
			c0.5949554,0.7800198,1.3708649,1.4229527,2.3249817,1.9315434c0.9541168,0.5099602,2.0124207,0.7635689,3.1749115,0.7635689
			c0.389328,0,0.7841339-0.0438671,1.1871643-0.1343441c0.4030457-0.090477,0.7731781-0.2316761,1.1186218-0.4263382
			c0.3399811-0.1946621,0.6168976-0.4564972,0.8252716-0.7868748c0.2083588-0.3290062,0.3152618-0.7334099,0.3152618-1.2118397
			c0-0.8992844-0.4112244-1.5422192-1.2310028-1.9315434s-2.0508118-0.7786484-3.6903534-1.1679726
			c-0.806076-0.180954-1.5874634-0.4112587-2.3496552-0.6963978c-0.7594604-0.2851391-1.4366608-0.6593838-2.0343628-1.1241055
			c-0.5976868-0.4633503-1.0720062-1.0391121-1.4311829-1.7286549c-0.3591614-0.6881733-0.5373688-1.5422192-0.5373688-2.5607681
			c0-1.1967621,0.2467499-2.2303905,0.7375183-3.0995159c0.493515-0.8677549,1.140564-1.5792313,1.9466248-2.1330595
			c0.8060608-0.5538273,1.7135773-0.9664564,2.7280121-1.2351456c1.0144348-0.2700596,2.0590363-0.4044037,3.1310425-0.4044037
			c1.5518188,0,3.0652466,0.2686892,4.5402985,0.8074369c1.4777832,0.5401192,2.645752,1.364006,3.512146,2.4716616
			L229.0440369,18.1488247z"/>
	</g>
	<g id="Bildmarke">
		<path fill="#DC4405" d="M21.5031052,38.882576c-8.5202408,0-15.4518261-6.9315834-15.4518261-15.4518261
			S12.9828644,7.9787517,21.5031052,7.9787517c5.1847668,0,9.7702961,2.5751615,12.5745621,6.5049052l4.6782341-2.6992245
			c-3.7412491-5.5314231-10.0722275-9.1679735-17.2527962-9.1679735c-11.4953508,0-20.814291,9.3189392-20.814291,20.814291
			s9.3189392,20.814291,20.814291,20.814291c7.0931759,0,13.3490982-3.5546417,17.1069717-8.9727974l-4.6770363-2.701107
			C31.1171227,36.3901825,26.6013374,38.882576,21.5031052,38.882576z"/>
		<path fill="#75787B" d="M39.6389084,23.4307499c0,2.9521484-0.7238159,5.7331104-1.9805527,8.198946l2.3285789,1.3451576
			c1.4803581-2.860815,2.3304634-6.1006737,2.3304634-9.5441036c0-3.3567238-0.8134346-6.5170708-2.2249069-9.3247652
			l-2.3290939,1.3436146C38.9524498,17.8617992,39.6389084,20.5644512,39.6389084,23.4307499z"/>
	</g>
</g>
</svg>
